<mxfile host="app.diagrams.net" modified="2024-07-05T04:48:43.153Z" agent="Mozilla/5.0 (Windows NT 10.0; Win64; x64) AppleWebKit/537.36 (KHTML, like Gecko) Chrome/126.0.0.0 Safari/537.36" version="24.6.4" etag="wHcaa4Ozp1-GF7CG3PE_" type="github">
  <diagram name="หน้า-1" id="PG7rd-CJFhSkngHGSH0S">
    <mxGraphModel>
      <root>
        <mxCell id="0" />
        <mxCell id="1" parent="0" />
      </root>
    </mxGraphModel>
  </diagram>
</mxfile>
